<svg width="25" height="30" viewBox="0 0 25 30" fill="none" xmlns="http://www.w3.org/2000/svg">
<path d="M20.4326 22.9132C20.4326 26.7231 17.1263 29.7733 13.2215 29.3445C10.2778 29.0222 7.86353 26.6281 7.5211 23.693C7.22759 21.1004 8.44191 18.7725 10.4188 17.4805L12.9452 20.0069C13.21 20.2717 13.5725 20.4242 13.9524 20.4242C14.3322 20.4242 14.6919 20.2717 14.9595 20.0069L17.1436 17.8229L17.486 17.4805C19.2614 18.6401 20.4297 20.6342 20.4297 22.9132H20.4326Z" fill="url(#paint0_linear_2493_17334)"/>
<path d="M24.082 8.88293L16.1401 16.8163L13.956 19.0003L11.772 16.8163L0.198549 5.24286C-0.0661831 4.97812 -0.0661831 4.54937 0.198549 4.28464L4.28464 0.198549C4.417 0.0661831 4.59829 0 4.76806 0C4.93784 0 5.11049 0.0661831 5.24286 0.198549L13.9531 8.90883L19.0262 3.82711C19.1586 3.69475 19.3399 3.62856 19.5096 3.62856C19.6794 3.62856 19.8521 3.69475 19.9844 3.82711L24.0791 7.92183C24.3439 8.18657 24.3439 8.61532 24.0791 8.88005L24.082 8.88293Z" fill="url(#paint1_linear_2493_17334)"/>
<defs>
<linearGradient id="paint0_linear_2493_17334" x1="2.30126" y1="18.2718" x2="30.2133" y2="36.4002" gradientUnits="userSpaceOnUse">
<stop stop-color="#FFD50A"/>
<stop offset="1" stop-color="#FF8C00"/>
</linearGradient>
<linearGradient id="paint1_linear_2493_17334" x1="0" y1="9.49872" x2="24.2806" y2="9.49872" gradientUnits="userSpaceOnUse">
<stop stop-color="#5304FB"/>
<stop offset="0.86" stop-color="#8F67FD"/>
</linearGradient>
</defs>
</svg>
