<svg width="18" height="12" viewBox="0 0 18 12" fill="none" xmlns="http://www.w3.org/2000/svg">
<path d="M9.375 5.9625C9.7375 5.5625 10.0156 5.10625 10.2094 4.59375C10.4031 4.08125 10.5 3.55 10.5 3C10.5 2.45 10.4031 1.91875 10.2094 1.40625C10.0156 0.89375 9.7375 0.4375 9.375 0.0375C10.125 0.1375 10.75 0.46875 11.25 1.03125C11.75 1.59375 12 2.25 12 3C12 3.75 11.75 4.40625 11.25 4.96875C10.75 5.53125 10.125 5.8625 9.375 5.9625ZM13.0875 12C13.225 11.775 13.3281 11.5344 13.3969 11.2781C13.4656 11.0219 13.5 10.7625 13.5 10.5V9.75C13.5 9.3 13.4 8.87188 13.2 8.46563C13 8.05937 12.7375 7.7 12.4125 7.3875C13.05 7.6125 13.6406 7.90312 14.1844 8.25937C14.7281 8.61562 15 9.1125 15 9.75V10.5C15 10.9125 14.8531 11.2656 14.5594 11.5594C14.2656 11.8531 13.9125 12 13.5 12H13.0875ZM15 5.25H14.25C14.0375 5.25 13.8594 5.17812 13.7156 5.03438C13.5719 4.89062 13.5 4.7125 13.5 4.5C13.5 4.2875 13.5719 4.10938 13.7156 3.96562C13.8594 3.82187 14.0375 3.75 14.25 3.75H15V3C15 2.7875 15.0719 2.60938 15.2156 2.46563C15.3594 2.32188 15.5375 2.25 15.75 2.25C15.9625 2.25 16.1406 2.32188 16.2844 2.46563C16.4281 2.60938 16.5 2.7875 16.5 3V3.75H17.25C17.4625 3.75 17.6406 3.82187 17.7844 3.96562C17.9281 4.10938 18 4.2875 18 4.5C18 4.7125 17.9281 4.89062 17.7844 5.03438C17.6406 5.17812 17.4625 5.25 17.25 5.25H16.5V6C16.5 6.2125 16.4281 6.39063 16.2844 6.53438C16.1406 6.67813 15.9625 6.75 15.75 6.75C15.5375 6.75 15.3594 6.67813 15.2156 6.53438C15.0719 6.39063 15 6.2125 15 6V5.25ZM6 6C5.175 6 4.46875 5.70625 3.88125 5.11875C3.29375 4.53125 3 3.825 3 3C3 2.175 3.29375 1.46875 3.88125 0.88125C4.46875 0.29375 5.175 0 6 0C6.825 0 7.53125 0.29375 8.11875 0.88125C8.70625 1.46875 9 2.175 9 3C9 3.825 8.70625 4.53125 8.11875 5.11875C7.53125 5.70625 6.825 6 6 6ZM0 10.5V9.9C0 9.475 0.109375 9.08437 0.328125 8.72812C0.546875 8.37187 0.8375 8.1 1.2 7.9125C1.975 7.525 2.7625 7.23438 3.5625 7.04062C4.3625 6.84687 5.175 6.75 6 6.75C6.825 6.75 7.6375 6.84687 8.4375 7.04062C9.2375 7.23438 10.025 7.525 10.8 7.9125C11.1625 8.1 11.4531 8.37187 11.6719 8.72812C11.8906 9.08437 12 9.475 12 9.9V10.5C12 10.9125 11.8531 11.2656 11.5594 11.5594C11.2656 11.8531 10.9125 12 10.5 12H1.5C1.0875 12 0.734375 11.8531 0.440625 11.5594C0.146875 11.2656 0 10.9125 0 10.5ZM6 4.5C6.4125 4.5 6.76563 4.35313 7.05938 4.05937C7.35313 3.76562 7.5 3.4125 7.5 3C7.5 2.5875 7.35313 2.23438 7.05938 1.94063C6.76563 1.64688 6.4125 1.5 6 1.5C5.5875 1.5 5.23438 1.64688 4.94063 1.94063C4.64687 2.23438 4.5 2.5875 4.5 3C4.5 3.4125 4.64687 3.76562 4.94063 4.05937C5.23438 4.35313 5.5875 4.5 6 4.5ZM1.5 10.5H10.5V9.9C10.5 9.7625 10.4656 9.6375 10.3969 9.525C10.3281 9.4125 10.2375 9.325 10.125 9.2625C9.45 8.925 8.76875 8.67188 8.08125 8.50313C7.39375 8.33438 6.7 8.25 6 8.25C5.3 8.25 4.60625 8.33438 3.91875 8.50313C3.23125 8.67188 2.55 8.925 1.875 9.2625C1.7625 9.325 1.67188 9.4125 1.60313 9.525C1.53438 9.6375 1.5 9.7625 1.5 9.9V10.5Z" fill="black"/>
</svg>
