<svg width="19" height="19" viewBox="0 0 19 19" fill="none" xmlns="http://www.w3.org/2000/svg">
<mask id="mask0_2461_13502" style="mask-type:alpha" maskUnits="userSpaceOnUse" x="0" y="0" width="19" height="19">
<rect width="18.5557" height="18.5557" fill="#D9D9D9"/>
</mask>
<g mask="url(#mask0_2461_13502)">
<path d="M3.40187 16.2358L2.31946 15.1534L8.13743 9.31608L4.63892 8.44629L8.46602 6.06884L8.13743 1.5459L11.5973 4.46455L15.7723 2.76361L14.0907 6.95797L17.0094 10.3985L12.4864 10.0892L10.0896 13.9163L9.21985 10.4178L3.40187 16.2358ZM3.86576 6.18481L2.31946 4.63851L3.86576 3.0922L5.41207 4.63851L3.86576 6.18481ZM10.7275 9.99259L11.6553 8.46561L13.4529 8.60092L12.2931 7.22857L12.9696 5.56629L11.3074 6.2428L9.93501 5.1024L10.0703 6.88065L8.54334 7.82776L10.2829 8.253L10.7275 9.99259ZM13.9167 16.2358L12.3704 14.6895L13.9167 13.1432L15.4631 14.6895L13.9167 16.2358Z" fill="white"/>
</g>
</svg>
